PathFileType	4	(X/Y/Z)	C:\Users\WrightLab\Desktop\Jo\P1_boxCal31.trc
DataRate	CameraRate	NumFrames	NumMarkers	Units	OrigDataRate	OrigDataStartFrame	OrigNumFrames
100.00	100.00	       29	19	mm	100.00	186	       740
Frame#	Time	Headset_Front			Headset_Back			Headset_Left			Headset_Right			Left_Shoulder			Right_Shoulder			Sternum			C7			Left Elbow			Right Elbow			Left Wrist			Right Wrist			Left ASIS			Right ASIS			S2			Left Knee			Right Knee			Left Ankle			Right Ankle			
		X1	Y1	Z1	X2	Y2	Z2	X3	Y3	Z3	X4	Y4	Z4	X5	Y5	Z5	X6	Y6	Z6	X7	Y7	Z7	X8	Y8	Z8	X9	Y9	Z9	X10	Y10	Z10	X11	Y11	Z11	X12	Y12	Z12	X13	Y13	Z13	X14	Y14	Z14	X15	Y15	Z15	X16	Y16	Z16	X17	Y17	Z17	X18	Y18	Z18	X19	Y19	Z19	

186	1.850																									-2.90924	916.03973	-1474.15686				-1.19022	711.12610	-1392.89844				-229.07059	836.19055	-1332.77332				-228.78156	863.45435	-1661.24060	-122.20366	405.83035	-1496.05261	-501.96371	443.80667	-1427.68127	-110.30968	53.14117	-1605.51501				
187	1.860																									-5.73555	916.18781	-1468.51965				-5.21088	710.66693	-1385.48865				-233.56335	835.20612	-1330.73718				-230.66302	862.47870	-1656.06531	-123.82749	405.49670	-1493.74426	-508.45294	444.59427	-1427.33362	-110.13751	53.27030	-1605.05408				
188	1.870																									-11.38258	915.66541	-1458.52295				-8.59329	711.20178	-1379.33606				-238.02516	833.18988	-1327.45166				-232.84444	862.13239	-1651.99829	-124.82819	405.45157	-1491.63965	-512.69696	443.21097	-1423.04724	-109.97012	53.49549	-1604.39258				
189	1.880																									-12.50799	915.52258	-1455.41113				-12.57813	710.52948	-1371.95374				-240.77509	832.82269	-1319.73413				-235.15935	861.52148	-1647.14624	-127.18066	404.85861	-1487.52051	-519.06525	440.91403	-1423.46863	-110.23208	54.11489	-1603.34753				
190	1.890																									-15.93377	915.58069	-1449.52356				-16.32433	709.86224	-1365.17761				-244.93578	832.93121	-1312.55334				-237.82184	861.01245	-1642.89990	-129.17757	403.49759	-1483.20068	-523.15100	442.85046	-1412.56885	-110.76102	55.84385	-1603.32214				
191	1.900																									-19.64387	914.83582	-1442.78223				-20.77226	709.97656	-1356.94519				-249.28764	830.39746	-1312.43884				-240.71172	860.10297	-1637.67065	-130.40106	402.97122	-1480.35144	-530.21698	441.46274	-1412.97729	-110.64027	56.00632	-1602.84485				
192	1.910																-502.61420	1211.15759	-1485.41785							-23.71267	914.30438	-1436.13025				-22.95322	709.83392	-1351.47278				-253.08592	829.76221	-1307.89819				-243.93658	858.96295	-1632.34424	-132.96855	402.69116	-1476.32092	-534.67670	441.88068	-1403.67603	-110.75421	56.51659	-1601.87366				
193	1.920																-506.87714	1208.87512	-1478.97424							-27.90561	913.87964	-1429.61389				-26.50221	709.92438	-1344.45935				-256.32120	830.28467	-1298.73242				-247.35457	858.46600	-1627.58252	-135.49388	401.52466	-1471.52283	-541.88507	441.06268	-1402.90161	-111.19715	57.19106	-1600.90540				
194	1.930																-511.58578	1206.91077	-1472.99609							-31.70994	913.22791	-1422.94360				-31.20355	708.98914	-1335.12109				-260.99725	827.25574	-1296.46802				-251.21297	857.65009	-1622.78186	-138.41100	400.59137	-1468.18945	-545.49487	441.79361	-1392.09460	-111.96146	57.15709	-1600.58179				
195	1.940																-516.77173	1205.97119	-1468.57898							-36.23206	912.89032	-1416.75879				-34.14497	709.52747	-1331.02295				-266.16214	826.43262	-1292.08093				-255.28893	856.47125	-1617.31104	-140.38802	400.52414	-1464.46814	-550.85419	440.09827	-1395.34583	-112.28185	57.95034	-1599.22888				
196	1.950																-521.25665	1204.91748	-1464.71375							-41.04448	911.72290	-1409.09607				-38.33518	708.60089	-1323.79370				-269.41364	826.89929	-1283.15613				-259.57709	855.47693	-1611.62463	-143.57465	400.41565	-1459.43677	-556.04504	437.58548	-1388.08545	-112.27377	58.29887	-1598.47461				
197	1.960																-527.02185	1204.13062	-1460.12073							-45.54507	911.93097	-1404.01855				-42.68962	708.50317	-1317.16602				-274.59769	824.73010	-1278.64160				-264.18079	854.11584	-1605.69250	-146.02766	400.33426	-1456.15369	-560.73602	440.06335	-1379.50256	-112.28120	61.32906	-1599.31348				
198	1.970										-401.37027	1340.91077	-1184.17346				-531.87366	1202.83337	-1455.22278							-50.82915	911.15894	-1396.86206				-47.68072	707.82617	-1307.35693				-280.91068	824.54126	-1272.01770				-269.03467	853.13800	-1599.93994	-149.08766	397.90097	-1460.50586	-565.96661	435.60123	-1380.87097	-111.15201	64.61219	-1600.28491				
199	1.980										-406.67719	1341.41821	-1178.90930				-537.20813	1201.23340	-1449.20032							-55.79538	910.93408	-1390.97302				-51.06863	708.37012	-1302.05334				-284.25357	824.84045	-1263.77087				-274.25797	852.15814	-1594.16858	-151.65776	399.59042	-1447.98328	-570.20319	436.97723	-1367.50647	-112.93504	64.58985	-1598.04639				
200	1.990										-411.87653	1340.46301	-1174.66040				-543.22864	1200.47449	-1444.35889							-61.27437	910.65668	-1384.55420				-54.82615	708.01855	-1296.25598				-290.38120	822.47772	-1261.73511				-279.66235	851.25922	-1588.07104	-155.17963	399.18594	-1443.51294	-575.84100	435.43530	-1364.03967	-112.18275	66.09005	-1597.00635				
201	2.000										-417.43192	1340.48132	-1169.09949				-549.39819	1199.80688	-1439.35400							-66.61294	910.03717	-1377.94507				-58.70558	708.84784	-1289.11377				-295.84238	822.40851	-1253.41760				-285.39340	850.21454	-1581.58911	-158.89122	399.90045	-1438.89734	-582.00330	434.10431	-1355.61877	-113.09230	68.78082	-1595.31201				
202	2.010										-422.72577	1340.94690	-1163.58740				-555.04315	1198.36133	-1433.19910							-72.66320	909.55121	-1370.77124				-64.85886	708.21277	-1280.76685				-301.68994	822.64447	-1247.48706				-291.55087	849.21686	-1575.35522	-163.23898	398.91351	-1432.96460	-584.31354	433.96420	-1348.99573	-113.33205	70.97391	-1594.41846				
203	2.020										-427.77792	1339.94824	-1157.48718				-561.74384	1197.45093	-1426.90466							-78.36027	909.20148	-1364.73328				-69.76878	708.85156	-1273.45459				-307.22217	821.26825	-1243.74268	-495.79895	815.39600	-1311.65112	-298.02402	848.69104	-1569.36584	-167.46756	398.20782	-1426.57336	-589.69312	428.27835	-1347.42297	-115.13036	74.62737	-1593.92810				
204	2.030										-434.41861	1340.35083	-1152.15125				-568.14880	1197.27698	-1422.43628							-84.75198	909.32355	-1358.19043				-74.75282	709.12152	-1267.95483				-314.20712	821.16791	-1233.64172	-501.69592	815.60571	-1305.18201	-304.89700	847.40515	-1562.49939	-172.84531	398.10959	-1421.03918	-594.17584	427.90457	-1341.73987	-116.67002	76.01622	-1591.39417				
205	2.040										-440.49124	1340.24084	-1147.34058				-575.13690	1196.86597	-1417.72864							-91.01965	909.47388	-1352.57764				-80.09962	709.76306	-1260.11218				-320.24445	822.68799	-1228.24719	-508.19153	814.30640	-1299.36328	-311.90634	846.47742	-1555.17883	-176.89201	398.14618	-1414.61951	-598.76007	426.72672	-1328.99011	-117.98078	78.95637	-1589.59351				
206	2.050										-444.88824	1339.29553	-1140.77905				-581.96204	1196.46619	-1411.46130							-97.28685	909.11780	-1345.62769				-84.87633	709.62341	-1253.21045				-327.54590	821.31329	-1224.31299	-516.28375	814.67859	-1290.30347	-319.41733	845.79370	-1549.06580	-181.59792	399.23508	-1409.27087	-604.20941	425.58844	-1324.87891	-118.75003	83.37399	-1589.05542				
207	2.060										-451.11383	1339.87024	-1135.64941				-589.25861	1197.12012	-1407.91772							-104.06888	909.26740	-1339.97961				-90.21369	710.50317	-1248.46619				-334.45071	821.58496	-1211.75000	-523.49426	814.78204	-1283.17908	-326.98663	844.85016	-1541.54187	-187.82436	397.88879	-1400.76758	-610.37878	424.02423	-1316.69373	-120.47896	85.93365	-1586.28271				
208	2.070										-456.85773	1340.00452	-1129.62781				-596.34229	1196.33923	-1400.09399							-111.28077	909.30951	-1333.47400				-94.13346	712.11194	-1241.98279				-342.05984	822.97461	-1203.94495	-530.29834	815.17450	-1278.43030	-334.80533	843.99872	-1534.72876	-192.55103	399.35306	-1393.11218	-614.29639	424.71381	-1308.80920	-121.91077	89.11374	-1581.85083				
209	2.080										-463.94025	1340.29260	-1123.69360				-603.56519	1196.39465	-1393.55664							-118.03551	910.30518	-1328.77930				-101.34576	711.54114	-1233.86365				-350.10205	823.46814	-1196.46277	-538.71967	814.93549	-1270.65247	-342.51154	843.05402	-1526.67542	-196.81924	399.99667	-1385.89343	-621.48505	422.33389	-1306.53137	-122.89656	95.09958	-1579.16052				
210	2.090										-469.99945	1341.44788	-1118.14185				-611.37671	1197.43506	-1388.86646							-127.94251	910.18805	-1319.74158				-106.02368	712.72699	-1228.42834				-357.49765	824.41370	-1189.67761	-546.50574	816.99402	-1261.96313	-350.31320	843.01184	-1520.31445	-202.61801	400.43860	-1375.69861	-627.70447	420.55011	-1305.38794	-123.93812	98.70561	-1573.36951				
211	2.100										-476.44113	1342.94104	-1112.41125				-618.60254	1197.94836	-1381.51160							-135.59235	910.19733	-1312.68311				-112.82927	714.17322	-1222.69885				-366.23315	825.13910	-1182.60828	-554.71539	817.73822	-1253.94971	-357.93518	842.89362	-1512.98474	-208.15762	400.81262	-1365.60303	-633.63873	423.00858	-1296.01843	-125.07678	105.77754	-1568.28027				
212	2.110										-482.54739	1343.70154	-1105.91406				-626.11023	1198.80457	-1374.08081							-140.59187	911.70819	-1311.89221				-119.80336	714.91199	-1216.03015				-374.90070	825.53564	-1176.46460	-562.93311	818.40558	-1246.03308	-365.48032	843.26392	-1506.31726	-213.29512	401.73376	-1355.69543	-641.18500	419.79068	-1298.25159	-125.92885	110.70377	-1561.68408				
213	2.120	-574.01971	1383.97168	-1215.50916							-486.81421	1345.27271	-1099.71289				-633.50433	1200.18689	-1367.84558							-148.72011	911.86938	-1304.62610				-124.37498	716.74951	-1211.34998				-380.89700	829.70471	-1167.62854	-570.31451	819.20941	-1245.04907	-372.67728	844.11749	-1499.79639	-219.52327	401.86264	-1342.61731	-647.09930	420.22491	-1290.39160	-127.91018	116.48840	-1553.38428				
214	2.130	-580.86652	1385.15027	-1206.37878							-493.10263	1346.55957	-1093.68542				-641.22455	1201.52100	-1359.95776							-156.78032	913.06360	-1299.55212				-131.34203	717.64368	-1206.31592				-390.01099	829.55835	-1161.76636	-577.60730	821.87030	-1235.81213	-379.61893	845.40845	-1493.36963	-225.76164	402.04077	-1330.22168	-653.14362	419.37234	-1289.95593	-129.90866	122.21774	-1544.37231				
